# xmcd
#
# Track frame offsets:
#	150
#	16934
#	32936
#	46251
#	60933
#	73662
#	86359
#	100811
#	118461
#	135928
#	149950
#	164022
#	181424
#	198906
#	214853
#	229110
#
# Disc length: 3315 seconds
# Revision: 0
# Processed by: cddbd v1.5.2PL0 Copyright (c) Steve Scherf et al.
# Submitted via: dBpowerAMP V12.0
#
DISCID=e70cf110
DTITLE=鄧麗君 - 鄧麗君極品音色 2 [dBS+1]
DYEAR=1997
DGENRE=Chinese Pop
TTITLE0=漫步人生路
TTITLE1=風霜伴我行
TTITLE2=忘記他
TTITLE3=浪子心聲
TTITLE4=一水隔天涯
TTITLE5=雪中情
TTITLE6=東山飄雨西山晴
TTITLE7=遇見舊情人
TTITLE8=有誰知我此時情
TTITLE9=向日葵
TTITLE10=檳城艷
TTITLE11=遇見你
TTITLE12=從今日起
TTITLE13=雨中追憶
TTITLE14=相思淚
TTITLE15=誰在改變
EXTD=
EXTT0=
EXTT1=
EXTT2=
EXTT3=
EXTT4=
EXTT5=
EXTT6=
EXTT7=
EXTT8=
EXTT9=
EXTT10=
EXTT11=
EXTT12=
EXTT13=
EXTT14=
EXTT15=
PLAYORDER=
